PathFileType	4	(x/y/z)	S06_M20_T25
DataRate	CameraRate	NumFrames	NumMarkers	Units	OrigDataRate	OrigDataStartFrame	OrigNumFrames
240	240	5	51	mm	240	431	492
Frame#	Time	Sternum			R.Acromium			L.Acromium			Top.Head			R.ASIS			L.ASIS			R.PSIS			L.PSIS			R.Great.Tro			L.Great.Tro			R.Iliac.Crest			L.Iliac.Crest			V.Sacral			R.Thigh.Upper.Post			R.Thigh.Lower.Ant			R.Thigh.Lower.Post			R.Thigh.Upper.Ant			R.Knee.Lat			R.Knee.Med			R.Shank.Upper.Post			R.Shank.Lower.Ant			R.Shank.Lower.Post			R.Shank.Upper.Ant			R.Ankle.Lat			R.Ankle.Med			R.Heel.Upper			R.Heel.Med			R.Heel.Lat			R.Toe.Lat			R.Toe.Med			R.Toe.Tip			L.Thigh.Upper.Post			L.Thigh.Lower.Ant			L.Thigh.Lower.Post			L.Thigh.Upper.Ant			L.Knee.Lat			L.Knee.Med			L.Shank.Upper.Post			L.Shank.Lower.Ant			L.Shank.Lower.Post			L.Shank.Upper.Ant			L.Ankle.Lat			L.Ankle.Med			L.Heel.Upper			L.Heel.Med			L.Heel.Lat			L.Toe.Lat			L.Toe.Med			L.Toe.Tip			Cervical.Spine			Back			
		X1	Y1	Z1	X2	Y2	Z2	X3	Y3	Z3	X4	Y4	Z4	X5	Y5	Z5	X6	Y6	Z6	X7	Y7	Z7	X8	Y8	Z8	X9	Y9	Z9	X10	Y10	Z10	X11	Y11	Z11	X12	Y12	Z12	X13	Y13	Z13	X14	Y14	Z14	X15	Y15	Z15	X16	Y16	Z16	X17	Y17	Z17	X18	Y18	Z18	X19	Y19	Z19	X20	Y20	Z20	X21	Y21	Z21	X22	Y22	Z22	X23	Y23	Z23	X24	Y24	Z24	X25	Y25	Z25	X26	Y26	Z26	X27	Y27	Z27	X28	Y28	Z28	X29	Y29	Z29	X30	Y30	Z30	X31	Y31	Z31	X32	Y32	Z32	X33	Y33	Z33	X34	Y34	Z34	X35	Y35	Z35	X36	Y36	Z36	X37	Y37	Z37	X38	Y38	Z38	X39	Y39	Z39	X40	Y40	Z40	X41	Y41	Z41	X42	Y42	Z42	X43	Y43	Z43	X44	Y44	Z44	X45	Y45	Z45	X46	Y46	Z46	X47	Y47	Z47	X48	Y48	Z48	X49	Y49	Z49	X50	Y50	Z50	X51	Y51	Z51	

431	1.7917	719.19	1281.9	315.59	581.52	1483.5	480.23	583.34	1485.8	129.04	660.69	1797.3	307.47	679.3	1044.7	434.46	693.38	1040.6	182.83	484.47	1058.4	334.89	487.88	1063.9	253.98	629.64	969.67	484.87	589.15	971.45	125.64	589.89	1114.6	463.69	625.12	1114.3	144.01	473.05	1026.8	296.03	724.34	739.65	483.17	806.56	686.68	447.81	747.73	654.31	464.82	784.16	774.48	459.35	811.15	564.29	454.91	815.46	563.73	325.9	818.11	335.26	458.31	892.08	286.88	445.59	832.77	259.18	446.13	877.76	361.13	456.65	898.43	135.81	429.37	917.82	150.08	346.54	857.93	71.355	375.37	880.65	48.417	344.69	874.29	42.72	409.05	1038	95.11	466.6	1066.1	123.79	354.13	1116	159.2	406.06	581.32	715.74	161.59	614.15	626.09	219.27	543.12	635.52	183.03	646	712.6	194.04	499.35	544.78	203.1	529.78	549.85	321.86	405.03	327.96	230	456.61	255.77	232.41	388.03	259.93	252.34	469.98	324.01	216.37	407.54	114.24	258.35	424.5	133.59	342.58	325.65	78.758	306.5	330.2	49.771	336.41	329.44	55.466	274.94	506.91	45.572	229.73	531.34	39.214	348.6	602.49	47.489	291.75	531.35	1537.1	304.6	478.71	1261.2	297.66
432	1.7958	724.1	1281	315.86	586.32	1482.6	480.56	588.33	1484.9	129.33	665.65	1796.5	307.97	684.21	1043.7	434.67	698.09	1039.6	183.02	489.32	1057.7	335.18	492.72	1063.2	254.29	634.34	968.72	485.21	593.59	970.71	125.86	594.83	1113.8	463.96	629.92	1113.4	144.24	477.85	1026.1	296.32	728.6	738.43	483.2	810.86	685.52	447.78	751.96	653.17	464.56	788.53	773.31	459.62	815.46	563.3	454.48	820.25	563.13	325.43	826.04	334.32	457.12	900.93	287.22	444.7	842.05	258.53	444.76	885.26	361.19	455.95	910.04	136.26	428.02	929.61	151.32	345.32	871.02	71.27	373.55	894.31	48.983	342.77	887.82	42.697	407.08	1050.3	97.796	465.55	1078.2	127.96	353.4	1127.2	163.91	405.81	584.31	715.21	161.64	616.79	625.34	219.16	545.73	635.17	183.12	649.04	711.72	193.93	501.59	544.61	203.24	532.2	549.49	321.97	406.27	328.23	230.14	457.5	255.8	232.5	388.94	260.29	252.48	471.19	323.98	216.47	407.77	114.45	258.48	424.87	133.74	342.7	325.76	78.983	306.65	330.28	49.969	336.52	329.51	55.71	275.06	506.93	45.574	229.75	531.38	39.189	348.62	602.54	47.391	291.73	536.31	1536.3	304.88	483.62	1260.4	297.89
433	1.8	729.04	1280.1	316.12	591.14	1481.7	480.9	593.33	1484	129.61	670.61	1795.6	308.46	689.13	1042.7	434.87	702.8	1038.6	183.2	494.19	1057	335.48	497.57	1062.4	254.61	639.07	967.77	485.54	598.04	969.97	126.08	599.79	1112.9	464.24	634.73	1112.5	144.47	482.67	1025.4	296.63	732.83	737.19	483.2	815.14	684.33	447.73	756.15	652.01	464.26	792.88	772.1	459.9	819.74	562.27	454.01	825.01	562.53	324.92	833.87	333.42	455.94	909.63	287.59	443.81	851.19	257.93	443.41	892.65	361.26	455.23	921.45	136.76	426.7	941.2	152.59	344.12	883.9	71.275	371.78	907.74	49.635	340.92	901.14	42.782	405.16	1062.3	100.53	464.56	1090	132.14	352.73	1138.2	168.6	405.62	587.39	714.69	161.71	619.51	624.61	219.08	548.43	634.81	183.22	652.16	710.85	193.84	503.91	544.45	203.39	534.72	549.13	322.08	407.56	328.51	230.3	458.43	255.83	232.6	389.91	260.66	252.62	472.46	323.95	216.59	408.02	114.69	258.6	425.27	133.89	342.83	325.88	79.244	306.79	330.37	50.204	336.64	329.59	55.989	275.19	506.96	45.578	229.78	531.44	39.166	348.64	602.59	47.282	291.7	541.28	1535.4	305.18	488.55	1259.5	298.14
434	1.8042	733.99	1279.2	316.38	596	1480.8	481.24	598.35	1483.2	129.91	675.57	1794.8	308.95	694.08	1041.7	435.08	707.53	1037.6	183.38	499.08	1056.2	335.81	502.43	1061.7	254.95	643.82	966.82	485.87	602.5	969.22	126.31	604.78	1112	464.53	639.54	1111.6	144.7	487.5	1024.7	296.96	737.04	735.91	483.17	819.39	683.12	447.65	760.3	650.81	463.9	797.22	770.86	460.18	823.98	561.23	453.5	829.74	561.92	324.38	841.6	332.55	454.78	918.19	287.97	442.92	860.2	257.38	442.09	899.93	361.33	454.5	932.65	137.32	425.43	952.55	153.9	342.97	896.57	71.363	370.06	920.92	50.362	339.13	914.22	42.966	403.31	1074	103.31	463.64	1101.6	136.3	352.11	1148.9	173.26	405.47	590.54	714.17	161.8	622.31	623.89	219.02	551.22	634.45	183.33	655.36	710	193.78	506.33	544.28	203.56	537.33	548.77	322.2	408.93	328.81	230.46	459.42	255.87	232.71	390.93	261.06	252.78	473.79	323.93	216.71	408.3	114.95	258.73	425.69	134.07	342.96	326.03	79.544	306.95	330.48	50.481	336.76	329.68	56.307	275.32	507	45.585	229.8	531.5	39.146	348.66	602.66	47.164	291.68	546.27	1534.6	305.47	493.49	1258.7	298.4
435	1.8083	738.95	1278.3	316.63	600.87	1479.9	481.58	603.37	1482.3	130.21	680.55	1794	309.45	699.05	1040.7	435.29	712.26	1036.6	183.55	503.98	1055.5	336.15	507.3	1061	255.31	648.59	965.86	486.18	606.98	968.48	126.55	609.78	1111.2	464.82	644.36	1110.8	144.95	492.34	1024	297.3	741.21	734.6	483.09	823.63	681.87	447.56	764.43	649.6	463.49	801.54	769.58	460.46	828.19	560.18	452.96	834.45	561.32	323.81	849.23	331.72	453.63	926.61	288.36	442.03	869.07	256.89	440.81	907.11	361.4	453.76	943.64	137.93	424.2	963.68	155.22	341.85	909	71.523	368.4	933.85	51.154	337.42	927.06	43.24	401.53	1085.5	106.12	462.76	1112.9	140.42	351.53	1159.2	177.88	405.34	593.77	713.65	161.91	625.19	623.19	218.99	554.1	634.1	183.46	658.63	709.16	193.74	508.85	544.11	203.73	540.05	548.4	322.34	410.35	329.12	230.63	460.46	255.91	232.83	392.01	261.47	252.94	475.19	323.92	216.84	408.6	115.23	258.87	426.14	134.26	343.09	326.19	79.89	307.1	330.59	50.805	336.88	329.78	56.667	275.45	507.04	45.594	229.83	531.57	39.129	348.67	602.73	47.037	291.66	551.28	1533.8	305.78	498.44	1257.9	298.68
